<svg width="44" height="44" viewBox="0 0 44 44" fill="none" xmlns="http://www.w3.org/2000/svg">
  <title>투톤 원 · 어두운 배경용 · 오프라인</title>

      <defs>
        <clipPath id="disc"><circle cx="22" cy="22" r="18"/></clipPath>
      </defs>
      <circle cx="22" cy="22" r="18" fill="#9DA9B8"/>
      <path d="M2 31 31 2h17v46H2Z" fill="#000000" opacity=".18" clip-path="url(#disc)"/>
      <path d="M4 13C12 6 25 3 38 9" fill="none" stroke="#FFFFFF" stroke-opacity=".16" stroke-width="3" clip-path="url(#disc)"/>
      <circle cx="22" cy="22" r="17.55" fill="none" stroke="#F4F7F8" stroke-opacity=".16" stroke-width=".9"/>

    <g transform="translate(22 22) scale(1) translate(-22 -22)">
      <circle cx="22" cy="22" r="9.8" fill="none" stroke="#151B21" stroke-width="2.45"/>
      <path d="M28.45 15.55c-1.48 3.45-3.02 6.12-4.64 7.76-1.65 1.64-4.3 3.2-7.78 4.68-.64.28-1.28-.36-1-.99 1.49-3.47 3.04-6.12 4.67-7.76 1.64-1.63 4.3-3.19 7.77-4.68.63-.27 1.26.36.98.99Z" fill="#151B21"/>
    </g>
</svg>
